{"title":"Zila Ghaziabad (2013) Hindi HDCAM MPEG - Exclusive","uid":8177482,"size":745347200,"categoryP":"video","categoryS":"movies","magnet":"?xt=urn:btih:70575122d36ca2f9522d23b3f0c6efe7ffe326c6&amp;dn=Zila+Ghaziabad+%282013%29+Hindi+HDCAM+MPEG+-+Exclusive&amp;tr=udp%3A%2F%2Ftracker.openbittorrent.com%3A80&amp;tr=udp%3A%2F%2Fopen.demonii.com%3A1337&amp;tr=udp%3A%2F%2Ftracker.coppersurfer.tk%3A6969&amp;tr=udp%3A%2F%2Fexodus.desync.com%3A6969","seeders":1,"leechers":0,"uploader":"tykoon123","files":-1,"time":1361558899,"description":"Poster: &lt;a href=&quot;\nhttp://imgr.us/images/15usepiyr2p1gngps3s.jpg&quot; rel=&quot;nofollow&quot; target=&quot;_NEW&quot;&gt;\nhttp://imgr.us/images/15usepiyr2p1gngps3s.jpg&lt;/a&gt;\n\nInfo:\n\n\nFormat : MPEG-PS\nFile size : 711 MiB\nDuration : 2h 9mn\nOverall bit rate : 770 Kbps\n\n\n\nVideo\nID : 224 (0xE0)\nFormat : MPEG Video\nFormat version : Version 2\nFormat profile : Main@Main\nFormat settings, BVOP : Yes\nFormat settings, Matrix : Default\nDuration : 2h 9mn\nBit rate mode : Variable\nBit rate : 627 Kbps\nMaximum bit rate : 9 672 Kbps\nWidth : 352 pixels\nHeight : 288 pixels\nDisplay aspect ratio : 4:3\nFrame rate : 25.000 fps\nStandard : PAL\nColor space : YUV\nChroma subsampling : 4:2:0\nBit depth : 8 bits\nScan type : Progressive\nCompression mode : Lossy\nBits/(Pixel*Frame) : 0.247\nStream size : 578 MiB (81%)\n\n\nAudio\nID : 192 (0xC0)\nFormat : MPEG Audio\nFormat version : Version 1\nFormat profile : Layer 2\nDuration : 2h 9mn\nBit rate mode : Constant\nBit rate : 128 Kbps\nChannel(s) : 2 channels\nSampling rate : 48.0 KHz\nCompression mode : Lossy\nDelay relative to video : -600ms\nStream size : 118 MiB (17%)\n\n\nScreens: &lt;a href=&quot;\nhttp://imgr.us/images/etiz3l9rd7gov3lai3p1.jpg&quot; rel=&quot;nofollow&quot; target=&quot;_NEW&quot;&gt;\nhttp://imgr.us/images/etiz3l9rd7gov3lai3p1.jpg&lt;/a&gt; &lt;a href=&quot;\nhttp://imgr.us/images/zwmfhw0kbr9kajpdf136.jpg&quot; rel=&quot;nofollow&quot; target=&quot;_NEW&quot;&gt;\nhttp://imgr.us/images/zwmfhw0kbr9kajpdf136.jpg&lt;/a&gt; &lt;a href=&quot;\nhttp://imgr.us/images/3llwkmny49ohgbmc7kj.jpg&quot; rel=&quot;nofollow&quot; target=&quot;_NEW&quot;&gt;\nhttp://imgr.us/images/3llwkmny49ohgbmc7kj.jpg&lt;/a&gt; &lt;a href=&quot;\nhttp://imgr.us/images/gdyhk8m7fxcqdpoqb3dj.jpg&quot; rel=&quot;nofollow&quot; target=&quot;_NEW&quot;&gt;\nhttp://imgr.us/images/gdyhk8m7fxcqdpoqb3dj.jpg&lt;/a&gt; &lt;a href=&quot;\nhttp://imgr.us/images/ipqy9yyoy2hfkfn0rb.jpg&quot; rel=&quot;nofollow&quot; target=&quot;_NEW&quot;&gt;\nhttp://imgr.us/images/ipqy9yyoy2hfkfn0rb.jpg&lt;/a&gt;\n\n\n\n","torrent":{"xt":"urn:btih:70575122d36ca2f9522d23b3f0c6efe7ffe326c6","amp;dn":"Zila+Ghaziabad+%282013%29+Hindi+HDCAM+MPEG+-+Exclusive","amp;tr":["udp%3A%2F%2Ftracker.openbittorrent.com%3A80","udp%3A%2F%2Fopen.demonii.com%3A1337","udp%3A%2F%2Ftracker.coppersurfer.tk%3A6969","udp%3A%2F%2Fexodus.desync.com%3A6969"],"infoHash":"70575122d36ca2f9522d23b3f0c6efe7ffe326c6","infoHashBuffer":{"type":"Buffer","data":[112,87,81,34,211,108,162,249,82,45,35,179,240,198,239,231,255,227,38,198]},"announce":[],"urlList":[]}}